<svg xmlns="http://www.w3.org/2000/svg" viewBox="0 0 83.66 90.42"><defs><style>.cls-1{fill:#231f20;}</style></defs><title>NSW Government</title><g id="Layer_2" data-name="Layer 2"><g id="Layer_1-2" data-name="Layer 1"><path class="cls-1" d="M22.56,69.89,9.05,54H3.33V78.85H8.9V63L22.37,78.85h5.75V54H22.56ZM76.05,54l-3.7,15.89L68.47,54H63.13L59.19,69.75,55.6,54H49.77l6.45,24.81H62l3.79-15.7,3.85,15.7h5.64l.06-.21L81.8,54Z"/><path class="cls-1" d="M2.74,86.46v0a3.91,3.91,0,0,1,4-4,4.14,4.14,0,0,1,3,1l-.85,1a3.05,3.05,0,0,0-2.15-.82,2.59,2.59,0,0,0-2.49,2.71v0a2.57,2.57,0,0,0,2.61,2.75,3.07,3.07,0,0,0,1.85-.59V87.17h-2V86H9.93v3.23a4.91,4.91,0,0,1-3.21,1.2,3.82,3.82,0,0,1-4-4"/><path class="cls-1" d="M10.74,86.46v0a3.94,3.94,0,0,1,4-4,3.89,3.89,0,0,1,4,4v0a3.94,3.94,0,0,1-4,4,3.91,3.91,0,0,1-4-4m6.62,0v0a2.63,2.63,0,0,0-2.61-2.73,2.59,2.59,0,0,0-2.59,2.71v0a2.62,2.62,0,0,0,2.61,2.73,2.59,2.59,0,0,0,2.59-2.71"/><polygon class="cls-1" points="18.68 82.6 20.17 82.6 22.48 88.51 24.79 82.6 26.25 82.6 23.05 90.34 21.87 90.34 18.68 82.6"/><polygon class="cls-1" points="27.16 82.6 32.85 82.6 32.85 83.81 28.51 83.81 28.51 85.81 32.36 85.81 32.36 87.02 28.51 87.02 28.51 89.08 32.91 89.08 32.91 90.28 27.16 90.28 27.16 82.6"/><path class="cls-1" d="M34.22,82.6h3.42a3.12,3.12,0,0,1,2.22.77A2.35,2.35,0,0,1,40.49,85v0a2.31,2.31,0,0,1-1.83,2.33l2.08,2.9h-1.6l-1.88-2.67H35.57v2.67H34.22Zm3.32,3.81c1,0,1.58-.51,1.58-1.28v0c0-.82-.59-1.27-1.59-1.27h-2v2.58Z"/><polygon class="cls-1" points="41.69 82.6 42.93 82.6 47.05 87.91 47.05 82.6 48.38 82.6 48.38 90.28 47.24 90.28 43.01 84.82 43.01 90.28 41.69 90.28 41.69 82.6"/><polygon class="cls-1" points="49.75 82.6 51.19 82.6 53.52 86.24 55.86 82.6 57.3 82.6 57.3 90.28 55.95 90.28 55.95 84.78 53.52 88.4 53.48 88.4 51.08 84.8 51.08 90.28 49.75 90.28 49.75 82.6"/><polygon class="cls-1" points="58.58 82.6 64.28 82.6 64.28 83.81 59.93 83.81 59.93 85.81 63.78 85.81 63.78 87.02 59.93 87.02 59.93 89.08 64.33 89.08 64.33 90.28 58.58 90.28 58.58 82.6"/><polygon class="cls-1" points="65.66 82.6 66.91 82.6 71.03 87.91 71.03 82.6 72.36 82.6 72.36 90.28 71.23 90.28 66.99 84.82 66.99 90.28 65.66 90.28 65.66 82.6"/><polygon class="cls-1" points="75.86 83.85 73.43 83.85 73.43 82.6 79.66 82.6 79.66 83.85 77.22 83.85 77.22 90.28 75.86 90.28 75.86 83.85"/><path class="cls-1" d="M29.66,75.4l3.28-3.93a11.49,11.49,0,0,0,7.52,3.06c2.27,0,3.64-.9,3.64-2.37v-.08c0-1.4-.86-2.12-5.08-3.2-5.08-1.3-8.35-2.7-8.35-7.71V61.1c0-4.57,3.67-7.6,8.82-7.6a14.64,14.64,0,0,1,9.37,3.21L46,60.89a11.88,11.88,0,0,0-6.56-2.49c-2.13,0-3.24,1-3.24,2.2v.07c0,1.66,1.08,2.2,5.44,3.31,5.11,1.33,8,3.17,8,7.56v.08c0,5-3.82,7.81-9.25,7.81a16,16,0,0,1-10.7-4"/><path class="cls-1" d="M16.6,6.94c-.52,0-.83.32-.94.93,0,0-.13.9-.27,2.44S15.1,14,15.1,16.6c0,6,.78,14.46,4.5,21,2.85,5,6.88,7.75,11.38,7.9a14.23,14.23,0,0,1-4.95-7,38.41,38.41,0,0,1-1.57-11.53,64,64,0,0,1,1.32-12.65.35.35,0,0,1,0-.07,2.68,2.68,0,0,1,1.32-1.85,67.87,67.87,0,0,0-9.3-5c-.45-.21-.7-.3-.7-.3h0a1.24,1.24,0,0,0-.49-.11"/><path class="cls-1" d="M55.67,13.92a.64.64,0,0,0-.39.16l-.4.33c-.26.21-.64.53-1.15,1A50.43,50.43,0,0,0,50,19.1a35.84,35.84,0,0,0-7.64,12.67A27,27,0,0,0,41,39.66a9.23,9.23,0,0,0,.76,4.09,4.64,4.64,0,0,0,2.33,2.31,4.37,4.37,0,0,0,1.69.3h0c3.14,0,8.37-2.62,10.18-8.44a37.53,37.53,0,0,0,1.46-11,64.14,64.14,0,0,0-1.07-11.37l-.2-1c-.08-.3-.23-.66-.49-.66"/><path class="cls-1" d="M28.07,13.92c-.28,0-.44.36-.53.67,0,.06-.08.39-.2,1s-.26,1.36-.44,2.67a61.45,61.45,0,0,0-.65,8.7,36.33,36.33,0,0,0,1.48,11c1.84,5.83,7.21,8.46,10.43,8.46h0A4.37,4.37,0,0,0,40,46a3.7,3.7,0,0,0,.8-.43,7.89,7.89,0,0,1-.64-1.08,11.43,11.43,0,0,1-1-4.85,30,30,0,0,1,1.51-8.42c.08-.29.18-.59.28-.87l.12-.34C37.65,21.53,29.79,15.12,28.9,14.42l-.42-.34a.77.77,0,0,0-.41-.16"/><path class="cls-1" d="M41.84,0c-.19,0-.39.15-.58.45a6,6,0,0,0-.43.67c-.39.66-.77,1.29-1.15,2-.84,1.5-2.13,3.93-3.45,7-.91,2.06-1.74,4.2-2.46,6.37A42.13,42.13,0,0,1,42,27.74a41.9,41.9,0,0,1,7.93-11.19,79.25,79.25,0,0,0-7.1-15.43L42.4.44C42.13,0,41.9,0,41.84,0"/><path class="cls-1" d="M67,6.94a1.21,1.21,0,0,0-.47.11h0a7.56,7.56,0,0,0-.7.3c-.44.18-1,.45-1.76.8l-.25.12a67.05,67.05,0,0,0-6.56,3.63l-.71.44a2.68,2.68,0,0,1,1.33,1.85s0,0,0,.08a64.64,64.64,0,0,1,1.3,12.65,39.42,39.42,0,0,1-1.53,11.53,14.14,14.14,0,0,1-4.85,7c4.44-.2,8.41-3,11.22-7.9,3.72-6.5,4.5-15,4.5-21,0-2.12-.1-4.24-.29-6.31C68.13,8.77,68,7.87,68,7.86c-.12-.6-.43-.9-1-.92"/><path class="cls-1" d="M54.75,1.89h-.19a1,1,0,0,0-.42.18h0s-1,.6-2.49,1.68c-.83.59-2.15,1.58-3.77,2.92C49,9.13,50.1,11.62,51,14.1a62.1,62.1,0,0,1,6.46-4.42,65,65,0,0,0-1.77-7,.24.24,0,0,0,0-.07,1,1,0,0,0-.91-.75"/><path class="cls-1" d="M28.91,1.89a1,1,0,0,0-.91.75l0,.07a62.59,62.59,0,0,0-1.77,7,63,63,0,0,1,6.45,4.42A71.59,71.59,0,0,1,35.8,6.69C34.52,5.63,33.25,4.64,32,3.77c-1.5-1.08-2.47-1.68-2.48-1.68h0a1,1,0,0,0-.43-.18h-.19"/><path class="cls-1" d="M7.22,18c-1.3,0-2,0-2.06,0a1.7,1.7,0,0,0-1.3.77,1.62,1.62,0,0,0-.26,1c.09.89.69,4.14,4.56,9,2-1,4-1.85,5.87-2.58a59.83,59.83,0,0,1-.7-7.91c-2.37-.23-4.24-.29-5.4-.31H7.22"/><path class="cls-1" d="M76.44,18h-.7c-1.17,0-3,.08-5.41.31a59.49,59.49,0,0,1-.7,7.91c1.91.73,3.88,1.6,5.87,2.58,3.89-4.9,4.48-8.15,4.57-9a1.89,1.89,0,0,0-.26-.95,1.72,1.72,0,0,0-1.3-.77s-.78,0-2.07,0"/><path class="cls-1" d="M69.31,28.06a34.58,34.58,0,0,1-3.7,10.4,18.42,18.42,0,0,1-6.43,6.86c18.45-1,23.66-6.94,24.21-7.63h0A1.7,1.7,0,0,0,83,35.43l-.6-.41h0c-.3-.22-.72-.5-1.25-.85l-.45-.29a64.19,64.19,0,0,0-6-3.44,57.17,57.17,0,0,0-5.34-2.37"/><path class="cls-1" d="M14.36,28.06A62.75,62.75,0,0,0,1.24,35l-.6.41A1.7,1.7,0,0,0,0,36.77a1.64,1.64,0,0,0,.27.91l0,0,.12.14L.5,38a8.83,8.83,0,0,0,.88.83A18.38,18.38,0,0,0,5.8,41.47c4.65,2.11,11.09,3.44,18.68,3.86a18.69,18.69,0,0,1-6.43-6.87,34.58,34.58,0,0,1-3.69-10.4"/><path class="cls-1" d="M67,46.67a39.74,39.74,0,0,0-4.46.48l-1,.14a25.85,25.85,0,0,1-3.55.19c-.91,0-1.87,0-2.87,0H55c-1,0-2,0-3.13,0a29.76,29.76,0,0,0-7.76.81.27.27,0,0,0-.21.26c0,.09.17.11.3.11h.12c1-.09,2-.14,2.94-.14a29.24,29.24,0,0,1,7.88,1.14,25.47,25.47,0,0,0,6.81,1c2.92,0,5.24-.62,6.19-1.67a1.47,1.47,0,0,0,.43-1.13c-.08-.78-.33-1.13-1.61-1.13"/><path class="cls-1" d="M16.66,46.67c-1.27,0-1.52.35-1.59,1.13a1.45,1.45,0,0,0,.41,1.13c.93,1,3.31,1.67,6.21,1.67a25.4,25.4,0,0,0,6.8-1,29.3,29.3,0,0,1,7.88-1.14c.93,0,1.92,0,2.94.14h.12c.13,0,.29,0,.31-.11a.3.3,0,0,0-.22-.27,30.09,30.09,0,0,0-7.75-.8h0c-1.08,0-2.17,0-3.12,0h-.1c-1,0-1.95,0-2.87,0a26,26,0,0,1-3.55-.19l-1-.14a39.16,39.16,0,0,0-4.45-.48"/></g></g></svg>
