<svg xmlns="http://www.w3.org/2000/svg" viewBox="0 0 84.36 90.42"><defs><style>.cls-1{fill:#15397f;}.cls-2{fill:#fff;}.cls-3{fill:#e3173e;}</style></defs><title>NSW Government</title><g id="Layer_2" data-name="Layer 2"><g id="Layer_1-2" data-name="Layer 1"><path class="cls-1" d="M23.11,70.14,9.77,54.48H4.12V79H9.63V63.37L22.93,79h5.68V54.48h-5.5ZM76,54.48,72.3,70.18l-3.84-15.7H63.19L59.29,70,55.75,54.48H50L56.37,79H62l3.74-15.5L69.58,79h5.57l.06-.21,6.42-24.3Z"/><path class="cls-1" d="M3.54,86.51v0a3.86,3.86,0,0,1,3.91-3.92,4.13,4.13,0,0,1,2.92,1l-.85,1a3,3,0,0,0-2.12-.82,2.58,2.58,0,0,0-2.47,2.68v0A2.53,2.53,0,0,0,7.51,89.2a3.1,3.1,0,0,0,1.84-.57V87.21H7.41V86.05h3.23v3.18a4.85,4.85,0,0,1-3.17,1.19,3.77,3.77,0,0,1-3.93-3.91"/><path class="cls-1" d="M11.44,86.51v0a3.89,3.89,0,0,1,4-3.92,3.85,3.85,0,0,1,4,3.9v0a3.89,3.89,0,0,1-4,3.93,3.86,3.86,0,0,1-4-3.91m6.54,0v0a2.61,2.61,0,0,0-2.58-2.7,2.57,2.57,0,0,0-2.56,2.68v0a2.6,2.6,0,0,0,2.58,2.7A2.56,2.56,0,0,0,18,86.51"/><polygon class="cls-1" points="19.28 82.7 20.75 82.7 23.04 88.53 25.32 82.7 26.76 82.7 23.6 90.34 22.43 90.34 19.28 82.7"/><polygon class="cls-1" points="27.66 82.7 33.28 82.7 33.28 83.89 28.99 83.89 28.99 85.86 32.8 85.86 32.8 87.06 28.99 87.06 28.99 89.09 33.34 89.09 33.34 90.28 27.66 90.28 27.66 82.7"/><path class="cls-1" d="M34.63,82.7H38a3,3,0,0,1,2.19.76,2.28,2.28,0,0,1,.63,1.63v0A2.27,2.27,0,0,1,39,87.41l2,2.88H39.5l-1.87-2.65H36v2.65H34.63Zm3.29,3.76c.95,0,1.56-.5,1.56-1.27v0c0-.81-.59-1.26-1.58-1.26H36v2.55Z"/><polygon class="cls-1" points="42.01 82.7 43.24 82.7 47.3 87.94 47.3 82.7 48.62 82.7 48.62 90.28 47.5 90.28 43.32 84.89 43.32 90.28 42.01 90.28 42.01 82.7"/><polygon class="cls-1" points="49.97 82.7 51.39 82.7 53.7 86.29 56.01 82.7 57.43 82.7 57.43 90.28 56.09 90.28 56.09 84.84 53.7 88.42 53.66 88.42 51.28 84.87 51.28 90.28 49.97 90.28 49.97 82.7"/><polygon class="cls-1" points="58.7 82.7 64.32 82.7 64.32 83.89 60.03 83.89 60.03 85.86 63.84 85.86 63.84 87.06 60.03 87.06 60.03 89.09 64.38 89.09 64.38 90.28 58.7 90.28 58.7 82.7"/><polygon class="cls-1" points="65.69 82.7 66.93 82.7 70.99 87.94 70.99 82.7 72.3 82.7 72.3 90.28 71.19 90.28 67 84.89 67 90.28 65.69 90.28 65.69 82.7"/><polygon class="cls-1" points="75.77 83.94 73.36 83.94 73.36 82.7 79.52 82.7 79.52 83.94 77.11 83.94 77.11 90.28 75.77 90.28 75.77 83.94"/><path class="cls-1" d="M30.13,75.58l3.23-3.87a11.49,11.49,0,0,0,7.44,3c2.24,0,3.59-.89,3.59-2.35v-.07c0-1.39-.85-2.1-5-3.17-5-1.28-8.26-2.66-8.26-7.61v-.07c0-4.52,3.63-7.51,8.72-7.51a14.41,14.41,0,0,1,9.25,3.17l-2.85,4.13a11.66,11.66,0,0,0-6.47-2.46c-2.1,0-3.2,1-3.2,2.17V61c0,1.64,1.06,2.17,5.37,3.28,5.05,1.31,7.9,3.13,7.9,7.47v.07c0,4.94-3.77,7.72-9.15,7.72a15.83,15.83,0,0,1-10.56-4"/><path class="cls-2" d="M42.2,48.78c-.11,0,1.56.38,1.56.74,8.7-.78,11.89,1.72,18.35,1.72,4.13,0,6.08-.93,6.4-2.84.52-4.11-5.86.14-18.37-1.28-.23-.68.81-.59,2.43-.62,15-.25,19-1.17,25.42-4a14.26,14.26,0,0,0,4-2.54,7.83,7.83,0,0,0,.9-.86l.19-.22s0,0,0,0h0a1.93,1.93,0,0,0,.31-1.06c0-.59,0-1.18-.48-1.54l-.6-.42a55.85,55.85,0,0,0-7.37-4.52s0,0,.31-.57c4.61-5.86,5-9.29,5.09-9.83v-.06a1.89,1.89,0,0,0-.3-1.05A2,2,0,0,0,78.56,19s-1-.05-2.77,0c-1.45,0-3.39.1-6.26.34a1.63,1.63,0,0,1-.62-1.52,62.87,62.87,0,0,0-.3-6.29C68.48,9.9,68.34,9,68.34,9a1.2,1.2,0,0,0-1.17-1.13,1.45,1.45,0,0,0-.59.12l-.72.3c-1.3.57-3.9,1.94-7.48,3.36a39,39,0,0,0-2.3-7.89,1.17,1.17,0,0,0-1.36-.9,1.37,1.37,0,0,0-.54.21s-1,.58-2.47,1.68c-1.08.78-2.43,1.8-3.92,3.05l-.69.46a40.72,40.72,0,0,1-2.59-4.11c-.52-.85-.94-1.51-1.21-2s-.41-.68-.41-.68c-.3-.43-.57-.55-.69-.55h0c-.12,0-.4.12-.69.56l-.41.67c-.28.46-.73,1.13-1.24,2a35.74,35.74,0,0,1-2.56,4.1l-.69-.45c-1.5-1.25-2.84-2.28-3.92-3.06-1.52-1.09-2.48-1.67-2.48-1.68a1.13,1.13,0,0,0-.53-.2,1.15,1.15,0,0,0-1.36.89A39.08,39.08,0,0,0,26,11.66C22.4,10.24,19.8,8.88,18.49,8.3L17.77,8a1.63,1.63,0,0,0-.58-.12A1.19,1.19,0,0,0,16,9s-.14.9-.28,2.45-.29,3.74-.29,6.28a1.62,1.62,0,0,1-.62,1.52C12,19,10,18.94,8.57,18.92c-1.74,0-2.77,0-2.77,0a1.91,1.91,0,0,0-1.48.87A1.87,1.87,0,0,0,4,20.88V21c0,.54.48,4,5.09,9.82.35.54.33.56.31.58a54,54,0,0,0-7.36,4.51c-.4.27-.6.43-.6.43C1,36.64,1,37.23,1,37.82a1.93,1.93,0,0,0,.31,1.06h0a.07.07,0,0,0,0,0,2.13,2.13,0,0,0,.19.22,6.81,6.81,0,0,0,.89.86,14.33,14.33,0,0,0,4,2.55c6.45,2.78,10.4,3.69,25.42,3.94,1.62,0,2.66-.06,2.42.63-12.5,1.41-18.88-2.84-18.37,1.28.33,1.9,2.27,2.83,6.4,2.83,6.47,0,9.65-2.5,18.35-1.72,0-.35,1.67-.73,1.57-.74Z"/><path class="cls-2" d="M22.24,52.21c-2.89,0-6.79-.38-7.35-3.64v0a2.59,2.59,0,0,1,.5-2.13l0,0A39.65,39.65,0,0,1,6,43.45a15.25,15.25,0,0,1-4-2.54l-.18-.16a8.8,8.8,0,0,1-.95-.9H.77l-.31-.44A3,3,0,0,1,0,37.82a2.61,2.61,0,0,1,.87-2.31l.64-.45.27-.19A55.43,55.43,0,0,1,8,31c-4.27-5.56-4.89-9-5-9.93v-.16a2.84,2.84,0,0,1,.48-1.59A2.87,2.87,0,0,1,5.75,18s1.08,0,2.83,0,3.53.12,5.86.3a1.48,1.48,0,0,0,0-.48v0c0-3,.19-5.27.3-6.38.14-1.55.27-2.46.28-2.49a2.18,2.18,0,0,1,2.09-2h0a2.68,2.68,0,0,1,.95.19l.74.32c.4.17.91.42,1.5.7,1.24.59,2.87,1.37,4.88,2.21a39.45,39.45,0,0,1,2.11-6.89v0a2.11,2.11,0,0,1,2.39-1.5,2,2,0,0,1,.91.34l.46.29c.43.28,1.15.76,2.07,1.43,1.19.85,2.5,1.87,3.82,3,.58-.85,1-1.66,1.46-2.4l.5-.87c.3-.5.59-.95.82-1.31s.31-.47.42-.66c.27-.43.4-.66.41-.66l0-.05a2,2,0,0,1,1.42-1h.11a1.91,1.91,0,0,1,1.49,1l0,.05s.13.24.39.64c.15.25.32.54.53.87l.68,1.1c.22.35.42.71.64,1.09.39.68.82,1.43,1.36,2.2,1.3-1.08,2.61-2.1,3.81-3,.93-.67,1.65-1.15,2.08-1.43h0l.45-.28a2.2,2.2,0,0,1,.91-.35l.37,0a2.12,2.12,0,0,1,2,1.54v0a38.94,38.94,0,0,1,2.1,6.88c2-.82,3.62-1.6,4.85-2.19.63-.3,1.13-.54,1.54-.72s.75-.31.75-.31a2.39,2.39,0,0,1,.94-.19,2.17,2.17,0,0,1,2.12,1.93c0,.06.15,1,.29,2.53.11,1.09.3,3.39.3,6.37v0a1.51,1.51,0,0,0,0,.48c2.33-.19,4.25-.29,5.86-.31,1.76,0,2.79,0,2.82,0a2.9,2.9,0,0,1,2.25,1.31,2.84,2.84,0,0,1,.46,1.58V21c-.09.94-.72,4.38-5,9.93a55.2,55.2,0,0,1,6.25,3.89l.29.21.63.44a2.6,2.6,0,0,1,.87,2.31,2.84,2.84,0,0,1-.47,1.58l-.28.45h-.1a7.24,7.24,0,0,1-1,.9l-.17.15a15.33,15.33,0,0,1-4,2.54A39.27,39.27,0,0,1,69,46.37l0,0a2.56,2.56,0,0,1,.49,2.13v0c-.55,3.26-4.46,3.63-7.35,3.63a34.46,34.46,0,0,1-7.23-.9,35.82,35.82,0,0,0-7.89-1c-1,0-2.06.05-3.14.15l-1.05.09V50l-.62-.21-.62.21v.58l-1.05-.1c-1.1-.1-2.13-.14-3.15-.14a36.39,36.39,0,0,0-7.88,1,34.43,34.43,0,0,1-7.24.91M16.8,48.27c.1.57.41,2,5.44,2a31.79,31.79,0,0,0,6.85-.87,38.06,38.06,0,0,1,8.27-1c.92,0,1.88,0,2.86.12a3.93,3.93,0,0,1,1.06-.47v-.12l.77-.11,0,.27,0-.28h0l.06.63.1-.62.76.12v.11a4.25,4.25,0,0,1,1.06.46c1-.07,1.94-.11,2.85-.11a38.08,38.08,0,0,1,8.28,1,31.78,31.78,0,0,0,6.84.87c5,0,5.35-1.44,5.44-2s0-.59,0-.59-.14-.15-.92-.15a27.54,27.54,0,0,0-3,.29,64.94,64.94,0,0,1-8.08.58,49.81,49.81,0,0,1-5.46-.3L49.43,48l-.2-.58a1.33,1.33,0,0,1,.14-1.22c.48-.66,1.33-.67,2.62-.68h.56c15.28-.25,19-1.26,25.06-3.86a13.18,13.18,0,0,0,3.53-2.25l.18-.15a6.29,6.29,0,0,0,.77-.74v-.62h.33v-.09c0-.28,0-.69-.09-.76l-.57-.4-.31-.22a52.83,52.83,0,0,0-6.94-4.23l-.14-.07L74.26,32c-.58-.58-.18-1.22.18-1.78l0-.08c4.24-5.38,4.81-8.58,4.89-9.28h0a.88.88,0,0,0-.15-.51,1,1,0,0,0-.73-.45s-1-.05-2.7,0-3.7.13-6.19.33l-.39,0L68.93,20a2.55,2.55,0,0,1-1-2.24v0c0-2.89-.18-5.12-.29-6.19-.13-1.51-.26-2.39-.27-2.4,0-.3-.14-.3-.24-.3a.5.5,0,0,0-.19,0l-.7.3c-.37.16-.88.4-1.47.69-1.48.7-3.5,1.67-6,2.68L57.66,13l-.23-1.14A39.48,39.48,0,0,0,55.21,4.2s0-.07,0-.11h0c-.1-.27-.18-.27-.22-.27h-.13l-.12.07h0L54.52,4c-.34.22-1.14.74-2.24,1.53-.85.61-2.21,1.63-3.87,3l-.09.07-1.44,1-.55-.71a26,26,0,0,1-2-3.16c-.21-.36-.41-.71-.61-1L43,3.57c-.21-.34-.4-.63-.54-.87l-.29-.47-.3.49-.44.69c-.24.37-.51.78-.79,1.26-.15.25-.31.53-.47.82A26.85,26.85,0,0,1,38,8.86l-.55.71L36,8.56c-1.69-1.41-3-2.41-3.87-3C31,4.76,30.19,4.25,29.85,4l-.19-.13-.12-.06H29.4s-.11,0-.21.27h0s0,.08,0,.11a39.37,39.37,0,0,0-2.23,7.65L26.7,13l-1.08-.43c-2.57-1-4.6-2-6.08-2.7-.57-.27-1.07-.51-1.44-.67l-.68-.29a.63.63,0,0,0-.22-.05c-.09,0-.18,0-.23.33,0,0-.13.88-.26,2.36-.11,1.09-.29,3.32-.29,6.2v0a2.54,2.54,0,0,1-1,2.24l-.3.24-.38,0c-2.5-.21-4.52-.32-6.19-.34s-2.7,0-2.71,0a1,1,0,0,0-.72.44.93.93,0,0,0-.15.52v0c.07.69.64,3.88,4.88,9.28l.06.07c.36.56.76,1.2.18,1.78l-.11.11-.14.07A51.93,51.93,0,0,0,2.9,36.45l-.29.21L2,37.07c-.09.06-.09.48-.09.75,0,0,0,.06,0,.1h.3v.61h0a5.75,5.75,0,0,0,.77.73l.19.17a12.89,12.89,0,0,0,3.54,2.24c6,2.6,9.76,3.61,25,3.87h.56c1.3,0,2.15,0,2.62.68a1.32,1.32,0,0,1,.15,1.22l-.2.58-.61.07a50,50,0,0,1-5.46.31,62.77,62.77,0,0,1-8.08-.59,27.3,27.3,0,0,0-3-.28c-.79,0-.93.14-.93.15s-.08.12,0,.59m26.33.6h0a1,1,0,0,0,0-.4l0,.24v.16m-1.88-.4a1,1,0,0,0,0,.4h0a.38.38,0,0,1,0-.15Z"/><path class="cls-3" d="M17.23,8c-.52,0-.82.32-.93.92,0,0-.13.89-.27,2.41s-.28,3.59-.28,6.21c0,5.9.77,14.28,4.44,20.71C23,43.11,27,45.88,31.43,46a14,14,0,0,1-4.88-6.94A37.52,37.52,0,0,1,25,27.69a63.88,63.88,0,0,1,1.3-12.49l0-.07a2.63,2.63,0,0,1,1.3-1.82,66.17,66.17,0,0,0-9.18-4.94c-.45-.21-.7-.3-.7-.3h0A1.28,1.28,0,0,0,17.23,8"/><path class="cls-3" d="M55.82,14.85a.62.62,0,0,0-.38.16s-.15.11-.4.33-.63.53-1.14,1A49.05,49.05,0,0,0,50.23,20a35.41,35.41,0,0,0-7.55,12.52,26.57,26.57,0,0,0-1.37,7.79,9,9,0,0,0,.75,4,4.56,4.56,0,0,0,2.3,2.28,4.27,4.27,0,0,0,1.67.29h0c3.1,0,8.27-2.58,10.06-8.33a37.32,37.32,0,0,0,1.44-10.87A63.07,63.07,0,0,0,56.5,16.46c-.12-.61-.19-1-.19-1-.08-.3-.23-.66-.49-.66"/><path class="cls-3" d="M28.56,14.85c-.28,0-.44.36-.53.67,0,.06-.08.38-.19.94s-.26,1.35-.44,2.64a61.68,61.68,0,0,0-.64,8.59,35.83,35.83,0,0,0,1.46,10.85c1.82,5.76,7.12,8.35,10.3,8.35h0a4.54,4.54,0,0,0,1.76-.31,4.44,4.44,0,0,0,.79-.43,6.18,6.18,0,0,1-.64-1.07,11.34,11.34,0,0,1-.94-4.79A29.16,29.16,0,0,1,41,32l.28-.86.12-.34C38,22.38,30.26,16,29.38,15.35,29.1,15.12,29,15,29,15a.77.77,0,0,0-.4-.17"/><path class="cls-3" d="M42.16,1.1c-.19,0-.38.15-.58.45,0,0-.16.23-.42.66L40,4.14C39.19,5.63,37.92,8,36.61,11c-.89,2-1.71,4.15-2.43,6.3a41.26,41.26,0,0,1,8.14,11.2,41.17,41.17,0,0,1,7.84-11.06,79.21,79.21,0,0,0-7-15.24l-.43-.67c-.26-.4-.49-.44-.55-.44"/><path class="cls-3" d="M67.06,8a1.17,1.17,0,0,0-.47.11h0s-.25.09-.7.29-1,.45-1.73.79l-.25.12a65.46,65.46,0,0,0-6.48,3.59c-.23.13-.46.28-.7.43A2.66,2.66,0,0,1,58,15.12s0,.05,0,.08a64.45,64.45,0,0,1,1.28,12.49,38.74,38.74,0,0,1-1.52,11.39A14,14,0,0,1,53,46c4.38-.2,8.3-3,11.08-7.8,3.67-6.43,4.44-14.81,4.44-20.71,0-2.09-.09-4.18-.28-6.23-.14-1.5-.26-2.39-.26-2.4a1,1,0,0,0-1-.91"/><path class="cls-3" d="M54.91,3l-.17,0h0a.84.84,0,0,0-.41.17h0s-1,.59-2.46,1.65c-.82.59-2.13,1.57-3.73,2.89A77.08,77.08,0,0,1,51.21,15a63.25,63.25,0,0,1,6.38-4.37,65.76,65.76,0,0,0-1.75-6.88.25.25,0,0,1,0-.07A1,1,0,0,0,54.91,3"/><path class="cls-3" d="M29.39,3a1,1,0,0,0-.9.74.64.64,0,0,0,0,.07,60.84,60.84,0,0,0-1.75,6.88A62,62,0,0,1,33.09,15a72,72,0,0,1,3.1-7.32c-1.26-1-2.52-2-3.73-2.89C31,3.76,30,3.17,30,3.17h0A.91.91,0,0,0,29.58,3h0l-.18,0"/><path class="cls-3" d="M8,18.92c-1.29,0-2,0-2,0a1.68,1.68,0,0,0-1.28.77,1.61,1.61,0,0,0-.26.94c.09.89.68,4.1,4.51,8.93,2-1,3.92-1.83,5.8-2.55A58.48,58.48,0,0,1,14,19.22c-2.34-.22-4.19-.29-5.34-.3H8"/><path class="cls-3" d="M76.33,18.92h-.69c-1.15,0-3,.08-5.34.3A58.15,58.15,0,0,1,69.61,27a61.12,61.12,0,0,1,5.8,2.55c3.84-4.85,4.43-8.06,4.51-8.94a1.72,1.72,0,0,0-.26-.93A1.66,1.66,0,0,0,78.38,19s-.77,0-2,0"/><path class="cls-3" d="M69.29,28.83a34,34,0,0,1-3.65,10.26,18.06,18.06,0,0,1-6.35,6.78c18.23-1,23.37-6.86,23.91-7.54h0a1.68,1.68,0,0,0-.37-2.23l-.6-.4h0c-.29-.22-.71-.5-1.23-.84l-.44-.29a64.7,64.7,0,0,0-6-3.39,53.39,53.39,0,0,0-5.28-2.34"/><path class="cls-3" d="M15,28.83A63.08,63.08,0,0,0,2.06,35.69l-.59.42a1.66,1.66,0,0,0-.37,2.22.05.05,0,0,1,0,0l.12.14.07.09a9.15,9.15,0,0,0,.88.82,18.25,18.25,0,0,0,4.36,2.65c4.59,2.08,11,3.39,18.46,3.81a18.35,18.35,0,0,1-6.36-6.79A34.3,34.3,0,0,1,15,28.83"/><path class="cls-3" d="M67,47.2a38.6,38.6,0,0,0-4.4.48l-1,.13a25.3,25.3,0,0,1-3.51.19c-.9,0-1.84,0-2.83,0h-.09c-.95,0-2-.05-3.09-.05a29.45,29.45,0,0,0-7.67.8.3.3,0,0,0-.21.27c0,.08.17.11.3.11h.12c1-.09,2-.13,2.91-.13a29,29,0,0,1,7.78,1.12,24.86,24.86,0,0,0,6.72,1c2.89,0,5.18-.62,6.12-1.65a1.43,1.43,0,0,0,.42-1.12c-.07-.77-.32-1.12-1.59-1.12"/><path class="cls-3" d="M17.29,47.2c-1.25,0-1.5.35-1.58,1.12a1.43,1.43,0,0,0,.41,1.12c.93,1,3.27,1.65,6.13,1.65a24.8,24.8,0,0,0,6.72-1A29.12,29.12,0,0,1,36.76,49c.92,0,1.89,0,2.9.13h.12c.13,0,.29,0,.3-.11s-.08-.23-.21-.27a29.42,29.42,0,0,0-7.66-.8h0c-1.07,0-2.15,0-3.09.05H29c-1,0-1.93,0-2.84,0a25.4,25.4,0,0,1-3.51-.19l-1-.13a38.26,38.26,0,0,0-4.39-.48"/></g></g></svg>
