<svg xmlns="http://www.w3.org/2000/svg" viewBox="0 0 85.4 91.53"><defs><style>.cls-1{fill:#fff;}.cls-2{fill:#e3173e;}</style></defs><title>NSW Government</title><g id="Layer_2" data-name="Layer 2"><g id="Layer_1-2" data-name="Layer 1"><path class="cls-1" d="M23.4,71,9.89,55.16H4.17V80H9.74V64.15L23.21,80H29V55.16H23.4ZM76.89,55.16l-3.7,15.89L69.31,55.16H64L60,70.87,56.44,55.16H50.61L57.06,80H62.8l3.79-15.7L70.44,80h5.64l.06-.21,6.5-24.6Z"/><path class="cls-1" d="M3.58,87.58v0a3.91,3.91,0,0,1,4-4,4.14,4.14,0,0,1,3,1l-.85,1a3.05,3.05,0,0,0-2.15-.82A2.59,2.59,0,0,0,5,87.54v0a2.57,2.57,0,0,0,2.61,2.75,3.07,3.07,0,0,0,1.85-.59V88.29h-2V87.11h3.27v3.23a5,5,0,0,1-3.21,1.19,3.81,3.81,0,0,1-4-4"/><path class="cls-1" d="M11.58,87.58v0a3.94,3.94,0,0,1,4-4,3.89,3.89,0,0,1,4,4v0a3.93,3.93,0,0,1-4,4,3.9,3.9,0,0,1-4-4m6.62,0v0a2.63,2.63,0,0,0-2.61-2.73A2.59,2.59,0,0,0,13,87.54v0a2.63,2.63,0,0,0,2.61,2.73,2.59,2.59,0,0,0,2.59-2.71"/><polygon class="cls-1" points="19.52 83.72 21.01 83.72 23.32 89.63 25.63 83.72 27.09 83.72 23.89 91.46 22.71 91.46 19.52 83.72"/><polygon class="cls-1" points="28 83.72 33.69 83.72 33.69 84.93 29.35 84.93 29.35 86.93 33.2 86.93 33.2 88.13 29.35 88.13 29.35 90.2 33.75 90.2 33.75 91.4 28 91.4 28 83.72"/><path class="cls-1" d="M35.06,83.72h3.42a3.1,3.1,0,0,1,2.22.77,2.31,2.31,0,0,1,.63,1.66v0A2.31,2.31,0,0,1,39.5,88.5l2.08,2.9H40L38.1,88.73H36.41V91.4H35.06Zm3.32,3.81c1,0,1.58-.51,1.58-1.28v0c0-.82-.59-1.27-1.59-1.27h-2v2.58Z"/><polygon class="cls-1" points="42.53 83.72 43.77 83.72 47.89 89.03 47.89 83.72 49.22 83.72 49.22 91.4 48.09 91.4 43.85 85.94 43.85 91.4 42.53 91.4 42.53 83.72"/><polygon class="cls-1" points="50.59 83.72 52.02 83.72 54.36 87.36 56.7 83.72 58.14 83.72 58.14 91.4 56.79 91.4 56.79 85.89 54.36 89.52 54.32 89.52 51.92 85.92 51.92 91.4 50.59 91.4 50.59 83.72"/><polygon class="cls-1" points="59.42 83.72 65.12 83.72 65.12 84.93 60.77 84.93 60.77 86.93 64.63 86.93 64.63 88.13 60.77 88.13 60.77 90.2 65.17 90.2 65.17 91.4 59.42 91.4 59.42 83.72"/><polygon class="cls-1" points="66.5 83.72 67.75 83.72 71.87 89.03 71.87 83.72 73.2 83.72 73.2 91.4 72.07 91.4 67.83 85.94 67.83 91.4 66.5 91.4 66.5 83.72"/><polygon class="cls-1" points="76.7 84.97 74.27 84.97 74.27 83.72 80.5 83.72 80.5 84.97 78.06 84.97 78.06 91.4 76.7 91.4 76.7 84.97"/><path class="cls-1" d="M30.5,76.52l3.28-3.93a11.56,11.56,0,0,0,7.52,3.06c2.27,0,3.64-.9,3.64-2.37V73.2c0-1.4-.86-2.12-5.08-3.2-5.08-1.3-8.35-2.7-8.35-7.71v-.07c0-4.57,3.67-7.6,8.82-7.6a14.59,14.59,0,0,1,9.37,3.21L46.82,62a11.93,11.93,0,0,0-6.56-2.48c-2.13,0-3.24,1-3.24,2.2v.07c0,1.66,1.08,2.19,5.44,3.31,5.11,1.33,8,3.17,8,7.56v.08c0,5-3.81,7.81-9.25,7.81a16,16,0,0,1-10.7-4"/><path class="cls-1" d="M42.72,49.38c-.11,0,1.58.39,1.58.75,8.81-.79,12,1.74,18.58,1.74,4.18,0,6.15-.94,6.48-2.87.52-4.16-5.93.14-18.6-1.29-.23-.7.82-.61,2.46-.64,15.2-.25,19.2-1.18,25.73-4a14.39,14.39,0,0,0,4-2.58,6.35,6.35,0,0,0,.9-.87,2.13,2.13,0,0,0,.19-.22s0,0,0,0h0a2,2,0,0,0,.31-1.07c0-.6,0-1.2-.49-1.56l-.61-.43a54.72,54.72,0,0,0-7.45-4.57s0,0,.31-.58c4.67-5.94,5.11-9.4,5.16-9.95v-.07a2,2,0,0,0-1.81-1.94s-1-.05-2.8,0c-1.47,0-3.44.11-6.34.34A1.63,1.63,0,0,1,69.76,18c0-2.58-.14-4.8-.3-6.36s-.27-2.48-.27-2.48A1.21,1.21,0,0,0,68,8a1.45,1.45,0,0,0-.59.12l-.73.3c-1.33.58-4,2-7.58,3.4a39.89,39.89,0,0,0-2.33-8,1.18,1.18,0,0,0-1.38-.9,1.33,1.33,0,0,0-.54.2s-1,.6-2.5,1.71c-1.1.79-2.46,1.83-4,3.09l-.7.46a42.86,42.86,0,0,1-2.62-4.16c-.52-.85-1-1.52-1.23-2s-.41-.69-.41-.69c-.3-.44-.58-.56-.7-.56h0c-.12,0-.4.12-.69.57l-.42.68c-.28.46-.75,1.14-1.26,2a34.42,34.42,0,0,1-2.59,4.15L37,7.91c-1.51-1.26-2.87-2.3-4-3.09-1.53-1.11-2.51-1.69-2.51-1.7A1.26,1.26,0,0,0,30,2.91a1.17,1.17,0,0,0-1.37.91,39.69,39.69,0,0,0-2.34,8C22.67,10.37,20,9,18.72,8.41,18.25,8.2,18,8.1,18,8.1A1.45,1.45,0,0,0,17.4,8a1.22,1.22,0,0,0-1.19,1.14s-.14.91-.27,2.48-.3,3.79-.3,6.36A1.64,1.64,0,0,1,15,19.5c-2.9-.24-4.87-.33-6.34-.34-1.75,0-2.8,0-2.8,0a2,2,0,0,0-1.5.89,1.88,1.88,0,0,0-.31,1.06v.07c.05.54.49,4,5.16,9.94.34.55.33.57.31.59a53.69,53.69,0,0,0-7.45,4.57c-.41.27-.61.42-.61.42-.49.36-.49,1-.49,1.56a2,2,0,0,0,.31,1.07h0a.09.09,0,0,0,0,0c0,.06.11.12.2.23a7.71,7.71,0,0,0,.9.87,14.42,14.42,0,0,0,4,2.57C13,45.9,17,46.82,32.18,47.08c1.64,0,2.69-.06,2.46.63C22,49.15,15.52,44.84,16,49c.33,1.92,2.3,2.86,6.48,2.86,6.54,0,9.76-2.52,18.58-1.74,0-.36,1.69-.73,1.58-.75Z"/><path class="cls-1" d="M22.52,52.85c-2.93,0-6.88-.38-7.45-3.68v0a2.59,2.59,0,0,1,.5-2.16l0,0a39.4,39.4,0,0,1-9.53-3A15.4,15.4,0,0,1,2,41.41l-.18-.15a8.87,8.87,0,0,1-1-.92H.78l-.31-.45A2.91,2.91,0,0,1,0,38.29,2.65,2.65,0,0,1,.88,36s.23-.17.65-.45l.27-.2a56.79,56.79,0,0,1,6.33-3.94c-4.32-5.63-5-9.11-5-10.06v-.16a2.83,2.83,0,0,1,.49-1.61,2.92,2.92,0,0,1,2.25-1.32s1.09-.05,2.86,0,3.58.12,5.94.31a1.55,1.55,0,0,0,0-.49v0c0-3,.19-5.34.3-6.46.14-1.57.28-2.49.29-2.52a2.2,2.2,0,0,1,2.12-2h0a2.53,2.53,0,0,1,1,.19l.75.32c.41.18.92.42,1.52.71,1.26.6,2.91,1.39,4.95,2.24a39.88,39.88,0,0,1,2.13-7v0a2.14,2.14,0,0,1,2-1.55,2.43,2.43,0,0,1,.38,0,2.23,2.23,0,0,1,.92.35l.46.3c.44.28,1.17.77,2.11,1.44,1.19.86,2.53,1.89,3.86,3,.59-.86,1.06-1.69,1.48-2.43.17-.31.34-.6.5-.88.31-.51.6-1,.83-1.33l.43-.67c.27-.43.41-.66.41-.67l0-.05a2,2,0,0,1,1.44-1h.11a1.94,1.94,0,0,1,1.51,1l0,.06s.13.23.39.64l.57.92c.19.32.42.68.67,1.08s.42.71.64,1.1c.4.68.83,1.44,1.37,2.22,1.32-1.09,2.65-2.12,3.87-3,.93-.67,1.66-1.15,2.1-1.44h0l.46-.29a2.25,2.25,0,0,1,.92-.34,2.31,2.31,0,0,1,.37,0,2.13,2.13,0,0,1,2,1.55v0a39.66,39.66,0,0,1,2.13,7c2-.83,3.66-1.62,4.91-2.22.64-.3,1.15-.55,1.56-.72l.76-.33A2.59,2.59,0,0,1,68,7,2.2,2.2,0,0,1,70.15,9c0,.06.15,1,.29,2.56.11,1.11.3,3.44.3,6.45v0a1.48,1.48,0,0,0,0,.48c2.36-.19,4.31-.29,5.93-.3,1.79,0,2.83,0,2.87,0a2.93,2.93,0,0,1,2.27,1.33,2.89,2.89,0,0,1,.47,1.6v.16c-.09.95-.72,4.43-5,10.05a55.88,55.88,0,0,1,6.32,3.94l.3.21c.41.28.63.45.63.45a2.63,2.63,0,0,1,.88,2.34,2.93,2.93,0,0,1-.47,1.6l-.29.45h-.09a8.74,8.74,0,0,1-1,.92l-.17.14a15,15,0,0,1-4,2.57,39.27,39.27,0,0,1-9.55,3l0,0a2.6,2.6,0,0,1,.5,2.15v.05c-.56,3.3-4.51,3.68-7.44,3.68a34.45,34.45,0,0,1-7.32-.92,36.72,36.72,0,0,0-8-1c-1,0-2.08,0-3.18.14l-1.07.1v-.59l-.62-.2-.62.21v.58L41,51.11C39.9,51,38.86,51,37.83,51a36.72,36.72,0,0,0-8,1,34.45,34.45,0,0,1-7.32.92m-5.51-4c.1.58.41,2,5.51,2A31.91,31.91,0,0,0,29.45,50a38.94,38.94,0,0,1,8.38-1c.94,0,1.89,0,2.88.12a4.23,4.23,0,0,1,1.08-.48v-.12l.78-.11,0,.3,0-.31h0l.06.63.1-.62.77.13v.1a4.41,4.41,0,0,1,1.08.47c1-.07,2-.11,2.88-.11A38.32,38.32,0,0,1,56,50a32.54,32.54,0,0,0,6.93.88c5.1,0,5.41-1.45,5.51-2s0-.6,0-.6-.14-.15-.94-.15a28.56,28.56,0,0,0-3.06.29,64.08,64.08,0,0,1-8.17.59,48.68,48.68,0,0,1-5.53-.31L50,48.61l-.2-.59A1.32,1.32,0,0,1,50,46.79c.48-.67,1.35-.68,2.65-.69h.57c15.47-.26,19.25-1.28,25.37-3.92a12.92,12.92,0,0,0,3.57-2.27l.19-.16a7.74,7.74,0,0,0,.78-.74v-.63h.33v-.09c0-.28,0-.7-.09-.77l-.58-.41-.32-.22a52.4,52.4,0,0,0-7-4.28l-.14-.08-.11-.11c-.59-.59-.18-1.23.18-1.79l0-.08c4.29-5.46,4.87-8.7,5-9.4h0a.89.89,0,0,0-.15-.52.93.93,0,0,0-.74-.45s-1-.05-2.74,0-3.74.13-6.26.34l-.39,0-.3-.24a2.57,2.57,0,0,1-1-2.26v0c0-2.93-.18-5.18-.29-6.27-.14-1.52-.27-2.41-.27-2.42C68.16,9,68.07,9,68,9a.54.54,0,0,0-.2,0l-.7.3c-.38.17-.9.41-1.49.7-1.5.71-3.54,1.69-6.12,2.71l-1.09.43L58.14,12a39.58,39.58,0,0,0-2.25-7.74s0-.07,0-.11c-.1-.27-.18-.27-.22-.27H55.5l-.12.06h0l-.17.12c-.35.22-1.16.75-2.28,1.55-.86.62-2.23,1.65-3.91,3.05l-.09.07-1.46,1L46.91,9a27.75,27.75,0,0,1-2.07-3.2c-.21-.37-.41-.72-.61-1l-.67-1.07L43,2.73l-.3-.47-.3.49c-.12.18-.27.43-.45.7s-.51.79-.8,1.27l-.48.84A25.25,25.25,0,0,1,38.49,9l-.55.72-1.55-1c-1.7-1.42-3.06-2.44-3.91-3-1.1-.8-1.91-1.32-2.26-1.54L30,4h0a.29.29,0,0,0-.13-.06h-.14s-.11,0-.21.27c0,0,0,.08,0,.11A39.58,39.58,0,0,0,27.26,12L27,13.15l-1.1-.44c-2.59-1-4.65-2-6.15-2.72L18.33,9.3,17.63,9a.59.59,0,0,0-.22,0c-.09,0-.18,0-.23.34h0s-.14.88-.27,2.38c-.11,1.1-.29,3.36-.29,6.28v0a2.59,2.59,0,0,1-1,2.27l-.3.24-.39,0c-2.53-.21-4.58-.32-6.27-.34s-2.73,0-2.74,0a1,1,0,0,0-.72.44.92.92,0,0,0-.16.53H5c.08.7.65,3.94,5,9.4l0,.08c.37.57.78,1.22.17,1.81l-.11.1-.13.07a53.16,53.16,0,0,0-7,4.29l-.29.21c-.39.26-.59.41-.59.41S2,38,2,38.29v.09h.31V39h0a6.31,6.31,0,0,0,.77.74l.2.17a13.26,13.26,0,0,0,3.59,2.27c6.1,2.63,9.88,3.65,25.35,3.91h.56c1.31,0,2.18,0,2.65.69A1.28,1.28,0,0,1,35.56,48l-.2.58-.62.07a48.56,48.56,0,0,1-5.53.32A63.8,63.8,0,0,1,21,48.4,28.08,28.08,0,0,0,18,48.12c-.8,0-.94.14-.94.15s-.09.12,0,.59m26.65.61h0a1.1,1.1,0,0,0,0-.41v.25a.38.38,0,0,1,0,.15m-1.9-.4a1,1,0,0,0,0,.4h0a.38.38,0,0,1,0-.15Z"/><path class="cls-2" d="M17.44,8.06c-.52,0-.83.32-.94.93,0,0-.13.9-.27,2.44s-.29,3.64-.29,6.29c0,6,.78,14.46,4.5,21,2.85,5,6.89,7.76,11.38,7.91a14.23,14.23,0,0,1-4.95-7A38.41,38.41,0,0,1,25.3,28a64,64,0,0,1,1.32-12.65.35.35,0,0,1,0-.07A2.68,2.68,0,0,1,28,13.47a67.87,67.87,0,0,0-9.3-5c-.45-.21-.7-.3-.7-.3h0a1.33,1.33,0,0,0-.5-.11"/><path class="cls-2" d="M56.51,15a.64.64,0,0,0-.39.16l-.4.33c-.26.21-.63.53-1.15,1a50.43,50.43,0,0,0-3.72,3.7,35.84,35.84,0,0,0-7.64,12.67,27,27,0,0,0-1.39,7.89,9.23,9.23,0,0,0,.76,4.09,4.58,4.58,0,0,0,2.33,2.3,4.18,4.18,0,0,0,1.69.31h0c3.14,0,8.37-2.62,10.18-8.44a37.53,37.53,0,0,0,1.46-11A64.14,64.14,0,0,0,57.2,16.67l-.2-1c-.08-.3-.23-.66-.49-.66"/><path class="cls-2" d="M28.91,15c-.28,0-.44.36-.53.67,0,.06-.08.39-.2,1s-.26,1.36-.44,2.66A61.61,61.61,0,0,0,27.09,28a36.33,36.33,0,0,0,1.48,11c1.84,5.83,7.21,8.46,10.43,8.46h0a4.33,4.33,0,0,0,1.77-.33,3.7,3.7,0,0,0,.8-.43A7.89,7.89,0,0,1,41,45.64a11.43,11.43,0,0,1-1-4.85,30,30,0,0,1,1.51-8.42c.08-.29.19-.59.28-.87l.12-.34c-3.42-8.51-11.28-14.92-12.17-15.62l-.42-.34a.77.77,0,0,0-.41-.16"/><path class="cls-2" d="M42.68,1.12c-.19,0-.38.15-.58.45a6,6,0,0,0-.43.67c-.39.65-.77,1.29-1.14,2a77,77,0,0,0-3.46,7c-.91,2.06-1.74,4.2-2.46,6.37a42.13,42.13,0,0,1,8.23,11.34,41.72,41.72,0,0,1,7.94-11.19A79.42,79.42,0,0,0,43.67,2.24l-.43-.68c-.27-.41-.5-.44-.56-.44"/><path class="cls-2" d="M67.89,8.06a1.21,1.21,0,0,0-.48.11h0s-.25.09-.7.3-1,.45-1.76.79l-.25.12A67.13,67.13,0,0,0,58.13,13l-.7.44a2.64,2.64,0,0,1,1.32,1.85.45.45,0,0,0,0,.08A65.36,65.36,0,0,1,60.07,28a39.28,39.28,0,0,1-1.54,11.52,14.18,14.18,0,0,1-4.84,7c4.43-.2,8.4-3,11.21-7.9,3.72-6.5,4.5-15,4.5-21,0-2.12-.09-4.24-.28-6.31C69,9.89,68.85,9,68.85,9a1,1,0,0,0-1-.92"/><path class="cls-2" d="M55.59,3H55.4A.85.85,0,0,0,55,3.2h0s-1,.61-2.49,1.68c-.83.6-2.15,1.59-3.77,2.92,1.17,2.45,2.23,4.94,3.13,7.42A62.1,62.1,0,0,1,58.3,10.8a62.59,62.59,0,0,0-1.77-7,.31.31,0,0,1,0-.08A1,1,0,0,0,55.59,3"/><path class="cls-2" d="M29.75,3a1,1,0,0,0-.91.74l0,.08a62.59,62.59,0,0,0-1.77,7,63,63,0,0,1,6.45,4.42A75,75,0,0,1,36.64,7.8c-1.28-1.06-2.55-2-3.78-2.92-1.5-1.07-2.47-1.67-2.48-1.68h0A.93.93,0,0,0,29.94,3h-.19"/><path class="cls-2" d="M8.06,19.15c-1.3,0-2.06,0-2.06,0A1.68,1.68,0,0,0,4.7,20a1.62,1.62,0,0,0-.26,1c.09.89.68,4.14,4.56,9,2-1,4-1.85,5.87-2.58a59.83,59.83,0,0,1-.7-7.92c-2.37-.22-4.24-.28-5.4-.3H8.06"/><path class="cls-2" d="M77.28,19.15h-.7c-1.17,0-3,.08-5.41.3a59.49,59.49,0,0,1-.7,7.92c1.91.73,3.88,1.6,5.87,2.58,3.89-4.9,4.48-8.15,4.57-9a1.89,1.89,0,0,0-.26-.95,1.72,1.72,0,0,0-1.3-.77s-.78,0-2.07,0"/><path class="cls-2" d="M70.15,29.18a34.58,34.58,0,0,1-3.7,10.4A18.39,18.39,0,0,1,60,46.43c18.45-1,23.66-6.94,24.21-7.62h0a1.62,1.62,0,0,0,.27-.91,1.71,1.71,0,0,0-.65-1.35l-.6-.4h0c-.29-.22-.72-.5-1.25-.85L81.54,35a64.19,64.19,0,0,0-6.05-3.44,57.17,57.17,0,0,0-5.34-2.37"/><path class="cls-2" d="M15.2,29.18a63.9,63.9,0,0,0-13.12,7c-.37.27-.59.42-.6.42a1.7,1.7,0,0,0-.64,1.34,1.64,1.64,0,0,0,.27.91l0,.05.12.14.07.09a9.4,9.4,0,0,0,.89.83,18.38,18.38,0,0,0,4.41,2.68C11.29,44.7,17.73,46,25.33,46.45a18.63,18.63,0,0,1-6.44-6.87,34.58,34.58,0,0,1-3.69-10.4"/><path class="cls-2" d="M67.83,47.78a40.42,40.42,0,0,0-4.46.49l-1,.13a24.12,24.12,0,0,1-3.55.2c-.91,0-1.86,0-2.87-.05h-.09c-1,0-2,0-3.13,0a30.19,30.19,0,0,0-7.76.81c-.13,0-.23.18-.21.27s.17.11.3.11h.12c1-.09,2-.14,3-.14A29.37,29.37,0,0,1,56,50.69a25.33,25.33,0,0,0,6.8,1c2.92,0,5.24-.62,6.19-1.67a1.44,1.44,0,0,0,.43-1.13c-.08-.79-.33-1.14-1.61-1.14"/><path class="cls-2" d="M17.51,47.78c-1.28,0-1.53.35-1.6,1.14a1.45,1.45,0,0,0,.41,1.13c.94,1,3.31,1.67,6.21,1.67a25.4,25.4,0,0,0,6.8-1,29.3,29.3,0,0,1,7.88-1.14c.93,0,1.92.05,2.94.14h.12c.14,0,.3,0,.31-.11a.3.3,0,0,0-.22-.27,30.12,30.12,0,0,0-7.75-.81h0c-1.09,0-2.18,0-3.13,0h-.09c-1,0-2,.05-2.88.05A24.3,24.3,0,0,1,23,48.4l-1-.13a40,40,0,0,0-4.44-.49"/></g></g></svg>
